<mxfile host="65bd71144e">
    <diagram name="第 1 页" id="y38Ul9vlqAH-STh2AElB">
        <mxGraphModel dx="2809" dy="2498" grid="1" gridSize="10" guides="1" tooltips="1" connect="1" arrows="1" fold="1" page="1" pageScale="1" pageWidth="827" pageHeight="1169" math="0" shadow="0">
            <root>
                <mxCell id="0"/>
                <mxCell id="1" parent="0"/>
                <mxCell id="FSgiWotWoUx7oEefbV2D-14" style="rounded=0;orthogonalLoop=1;jettySize=auto;html=1;exitX=0.5;exitY=1;exitDx=0;exitDy=0;endArrow=none;endFill=0;" parent="1" source="FSgiWotWoUx7oEefbV2D-6" target="FSgiWotWoUx7oEefbV2D-8" edge="1">
                    <mxGeometry relative="1" as="geometry"/>
                </mxCell>
                <mxCell id="FSgiWotWoUx7oEefbV2D-15" value="2:讀取選取月曆()" style="edgeLabel;html=1;align=center;verticalAlign=middle;resizable=0;points=[];" parent="FSgiWotWoUx7oEefbV2D-14" vertex="1" connectable="0">
                    <mxGeometry x="-0.3712" relative="1" as="geometry">
                        <mxPoint x="-31" y="49" as="offset"/>
                    </mxGeometry>
                </mxCell>
                <mxCell id="FSgiWotWoUx7oEefbV2D-48" style="edgeStyle=orthogonalEdgeStyle;rounded=0;orthogonalLoop=1;jettySize=auto;html=1;endArrow=none;endFill=0;" parent="1" source="FSgiWotWoUx7oEefbV2D-6" target="FSgiWotWoUx7oEefbV2D-7" edge="1">
                    <mxGeometry relative="1" as="geometry"/>
                </mxCell>
                <mxCell id="FSgiWotWoUx7oEefbV2D-51" value="8:查看日程行程()" style="edgeLabel;html=1;align=center;verticalAlign=middle;resizable=0;points=[];" parent="FSgiWotWoUx7oEefbV2D-48" vertex="1" connectable="0">
                    <mxGeometry x="-0.6182" y="3" relative="1" as="geometry">
                        <mxPoint x="-41" y="-119" as="offset"/>
                    </mxGeometry>
                </mxCell>
                <mxCell id="FSgiWotWoUx7oEefbV2D-63" style="rounded=0;orthogonalLoop=1;jettySize=auto;html=1;endArrow=none;endFill=0;" parent="1" source="FSgiWotWoUx7oEefbV2D-6" target="FSgiWotWoUx7oEefbV2D-9" edge="1">
                    <mxGeometry relative="1" as="geometry"/>
                </mxCell>
                <mxCell id="FSgiWotWoUx7oEefbV2D-6" value="&lt;div&gt;&lt;span style=&quot;background-color: initial;&quot;&gt;月曆UI&lt;/span&gt;&lt;/div&gt;" style="rounded=0;whiteSpace=wrap;html=1;" parent="1" vertex="1">
                    <mxGeometry x="324" y="300" width="120" height="40" as="geometry"/>
                </mxCell>
                <mxCell id="TEh5bMPlxuKXRqy_ldTu-27" style="edgeStyle=orthogonalEdgeStyle;rounded=0;orthogonalLoop=1;jettySize=auto;html=1;endArrow=none;endFill=0;" parent="1" source="FSgiWotWoUx7oEefbV2D-7" target="TEh5bMPlxuKXRqy_ldTu-12" edge="1">
                    <mxGeometry relative="1" as="geometry"/>
                </mxCell>
                <mxCell id="tvYQikUjvdEjXpRlb5Ct-32" style="edgeStyle=orthogonalEdgeStyle;rounded=0;orthogonalLoop=1;jettySize=auto;html=1;endArrow=none;endFill=0;" parent="1" source="FSgiWotWoUx7oEefbV2D-7" target="FSgiWotWoUx7oEefbV2D-9" edge="1">
                    <mxGeometry relative="1" as="geometry"/>
                </mxCell>
                <mxCell id="FSgiWotWoUx7oEefbV2D-7" value="日程UI" style="rounded=0;whiteSpace=wrap;html=1;" parent="1" vertex="1">
                    <mxGeometry x="324" y="30" width="120" height="40" as="geometry"/>
                </mxCell>
                <mxCell id="82gKmiH_CqAm7BqFR_7U-1" style="rounded=0;orthogonalLoop=1;jettySize=auto;html=1;endArrow=none;endFill=0;" parent="1" source="FSgiWotWoUx7oEefbV2D-8" target="TEh5bMPlxuKXRqy_ldTu-11" edge="1">
                    <mxGeometry relative="1" as="geometry"/>
                </mxCell>
                <mxCell id="FSgiWotWoUx7oEefbV2D-8" value="萬年曆API(套件)" style="rounded=0;whiteSpace=wrap;html=1;" parent="1" vertex="1">
                    <mxGeometry x="530" y="660" width="120" height="40" as="geometry"/>
                </mxCell>
                <mxCell id="TEh5bMPlxuKXRqy_ldTu-47" style="edgeStyle=orthogonalEdgeStyle;rounded=0;orthogonalLoop=1;jettySize=auto;html=1;endArrow=none;endFill=0;entryX=0.489;entryY=0.151;entryDx=0;entryDy=0;entryPerimeter=0;" parent="1" source="FSgiWotWoUx7oEefbV2D-9" target="TEh5bMPlxuKXRqy_ldTu-10" edge="1">
                    <mxGeometry relative="1" as="geometry"/>
                </mxCell>
                <mxCell id="tvYQikUjvdEjXpRlb5Ct-8" style="rounded=0;orthogonalLoop=1;jettySize=auto;html=1;endArrow=none;endFill=0;" parent="1" source="FSgiWotWoUx7oEefbV2D-9" target="TEh5bMPlxuKXRqy_ldTu-13" edge="1">
                    <mxGeometry relative="1" as="geometry"/>
                </mxCell>
                <mxCell id="FSgiWotWoUx7oEefbV2D-9" value="建立形成UI" style="rounded=0;whiteSpace=wrap;html=1;" parent="1" vertex="1">
                    <mxGeometry x="160" y="650" width="120" height="40" as="geometry"/>
                </mxCell>
                <mxCell id="TEh5bMPlxuKXRqy_ldTu-45" style="rounded=0;orthogonalLoop=1;jettySize=auto;html=1;entryX=0.124;entryY=0.051;entryDx=0;entryDy=0;entryPerimeter=0;endArrow=none;endFill=0;" parent="1" source="FSgiWotWoUx7oEefbV2D-11" target="FSgiWotWoUx7oEefbV2D-9" edge="1">
                    <mxGeometry relative="1" as="geometry"/>
                </mxCell>
                <mxCell id="tvYQikUjvdEjXpRlb5Ct-22" style="rounded=0;orthogonalLoop=1;jettySize=auto;html=1;endArrow=none;endFill=0;" parent="1" source="FSgiWotWoUx7oEefbV2D-11" target="tvYQikUjvdEjXpRlb5Ct-17" edge="1">
                    <mxGeometry relative="1" as="geometry"/>
                </mxCell>
                <mxCell id="FSgiWotWoUx7oEefbV2D-11" value="繁忙疏於管理的人" style="rounded=0;whiteSpace=wrap;html=1;" parent="1" vertex="1">
                    <mxGeometry y="300" width="120" height="40" as="geometry"/>
                </mxCell>
                <mxCell id="FSgiWotWoUx7oEefbV2D-29" style="rounded=0;orthogonalLoop=1;jettySize=auto;html=1;exitX=1;exitY=0.5;exitDx=0;exitDy=0;entryX=0;entryY=0.5;entryDx=0;entryDy=0;endArrow=none;endFill=0;startArrow=none;startFill=0;jumpStyle=none;" parent="1" edge="1">
                    <mxGeometry relative="1" as="geometry"/>
                </mxCell>
                <mxCell id="FSgiWotWoUx7oEefbV2D-30" value="1:查看月曆月份(月份)" style="edgeLabel;html=1;align=center;verticalAlign=middle;resizable=0;points=[];" parent="FSgiWotWoUx7oEefbV2D-29" vertex="1" connectable="0">
                    <mxGeometry x="-0.0665" y="1" relative="1" as="geometry">
                        <mxPoint as="offset"/>
                    </mxGeometry>
                </mxCell>
                <mxCell id="FSgiWotWoUx7oEefbV2D-31" value="" style="html=1;rounded=0;" parent="1" edge="1">
                    <mxGeometry relative="1" as="geometry">
                        <mxPoint x="395" y="418" as="sourcePoint"/>
                        <mxPoint x="435" y="478" as="targetPoint"/>
                    </mxGeometry>
                </mxCell>
                <mxCell id="FSgiWotWoUx7oEefbV2D-33" style="rounded=0;orthogonalLoop=1;jettySize=auto;html=1;exitX=1;exitY=0.5;exitDx=0;exitDy=0;entryX=0;entryY=0.5;entryDx=0;entryDy=0;endArrow=none;endFill=0;startArrow=none;startFill=0;jumpStyle=none;" parent="1" edge="1">
                    <mxGeometry relative="1" as="geometry"/>
                </mxCell>
                <mxCell id="FSgiWotWoUx7oEefbV2D-34" value="1:查看月曆月份(月份)" style="edgeLabel;html=1;align=center;verticalAlign=middle;resizable=0;points=[];" parent="FSgiWotWoUx7oEefbV2D-33" vertex="1" connectable="0">
                    <mxGeometry x="-0.0665" y="1" relative="1" as="geometry">
                        <mxPoint as="offset"/>
                    </mxGeometry>
                </mxCell>
                <mxCell id="FSgiWotWoUx7oEefbV2D-36" style="rounded=0;orthogonalLoop=1;jettySize=auto;html=1;exitX=1;exitY=0.5;exitDx=0;exitDy=0;entryX=0;entryY=0.5;entryDx=0;entryDy=0;endArrow=none;endFill=0;startArrow=none;startFill=0;jumpStyle=none;dashed=1;" parent="1" edge="1">
                    <mxGeometry relative="1" as="geometry"/>
                </mxCell>
                <mxCell id="FSgiWotWoUx7oEefbV2D-37" value="1:查看月曆月份(月份)" style="edgeLabel;html=1;align=center;verticalAlign=middle;resizable=0;points=[];" parent="FSgiWotWoUx7oEefbV2D-36" vertex="1" connectable="0">
                    <mxGeometry x="-0.0665" y="1" relative="1" as="geometry">
                        <mxPoint as="offset"/>
                    </mxGeometry>
                </mxCell>
                <mxCell id="FSgiWotWoUx7oEefbV2D-41" style="rounded=0;orthogonalLoop=1;jettySize=auto;html=1;exitX=1;exitY=0.5;exitDx=0;exitDy=0;entryX=0;entryY=0.5;entryDx=0;entryDy=0;endArrow=none;endFill=0;startArrow=none;startFill=0;jumpStyle=none;" parent="1" edge="1">
                    <mxGeometry relative="1" as="geometry"/>
                </mxCell>
                <mxCell id="FSgiWotWoUx7oEefbV2D-42" value="1:查看月曆月份(月份)" style="edgeLabel;html=1;align=center;verticalAlign=middle;resizable=0;points=[];" parent="FSgiWotWoUx7oEefbV2D-41" vertex="1" connectable="0">
                    <mxGeometry x="-0.0665" y="1" relative="1" as="geometry">
                        <mxPoint as="offset"/>
                    </mxGeometry>
                </mxCell>
                <mxCell id="FSgiWotWoUx7oEefbV2D-43" value="" style="html=1;rounded=0;" parent="1" edge="1">
                    <mxGeometry relative="1" as="geometry">
                        <mxPoint x="170" y="290" as="sourcePoint"/>
                        <mxPoint x="270" y="290" as="targetPoint"/>
                    </mxGeometry>
                </mxCell>
                <mxCell id="FSgiWotWoUx7oEefbV2D-44" value="7:點選要查看的日期()" style="text;html=1;align=center;verticalAlign=middle;resizable=0;points=[];autosize=1;strokeColor=none;fillColor=none;" parent="1" vertex="1">
                    <mxGeometry x="20" y="127" width="140" height="30" as="geometry"/>
                </mxCell>
                <mxCell id="FSgiWotWoUx7oEefbV2D-12" style="rounded=0;orthogonalLoop=1;jettySize=auto;html=1;exitX=1;exitY=0.5;exitDx=0;exitDy=0;entryX=0;entryY=0.5;entryDx=0;entryDy=0;endArrow=none;endFill=0;startArrow=none;startFill=0;jumpStyle=none;" parent="1" source="FSgiWotWoUx7oEefbV2D-11" target="FSgiWotWoUx7oEefbV2D-6" edge="1">
                    <mxGeometry relative="1" as="geometry"/>
                </mxCell>
                <mxCell id="FSgiWotWoUx7oEefbV2D-13" value="1:查看月曆月份(月份)" style="edgeLabel;html=1;align=center;verticalAlign=middle;resizable=0;points=[];" parent="FSgiWotWoUx7oEefbV2D-12" vertex="1" connectable="0">
                    <mxGeometry x="-0.0665" y="1" relative="1" as="geometry">
                        <mxPoint x="-135" y="-199" as="offset"/>
                    </mxGeometry>
                </mxCell>
                <mxCell id="FSgiWotWoUx7oEefbV2D-50" value="" style="html=1;rounded=0;" parent="1" edge="1">
                    <mxGeometry relative="1" as="geometry">
                        <mxPoint x="360" y="270" as="sourcePoint"/>
                        <mxPoint x="360" y="180" as="targetPoint"/>
                    </mxGeometry>
                </mxCell>
                <mxCell id="FSgiWotWoUx7oEefbV2D-59" value="13:返回當月月曆()" style="text;html=1;align=center;verticalAlign=middle;resizable=0;points=[];autosize=1;strokeColor=none;fillColor=none;" parent="1" vertex="1">
                    <mxGeometry x="20" y="148" width="120" height="30" as="geometry"/>
                </mxCell>
                <mxCell id="FSgiWotWoUx7oEefbV2D-60" value="14.點擊建立行程()" style="text;html=1;align=center;verticalAlign=middle;resizable=0;points=[];autosize=1;strokeColor=none;fillColor=none;" parent="1" vertex="1">
                    <mxGeometry x="20" y="168" width="120" height="30" as="geometry"/>
                </mxCell>
                <mxCell id="FSgiWotWoUx7oEefbV2D-64" value="" style="html=1;rounded=0;" parent="1" edge="1">
                    <mxGeometry relative="1" as="geometry">
                        <mxPoint x="290" y="450" as="sourcePoint"/>
                        <mxPoint x="260" y="520" as="targetPoint"/>
                    </mxGeometry>
                </mxCell>
                <mxCell id="FSgiWotWoUx7oEefbV2D-65" value="15:顯示建立行程框()" style="text;html=1;align=center;verticalAlign=middle;resizable=0;points=[];autosize=1;strokeColor=none;fillColor=none;" parent="1" vertex="1">
                    <mxGeometry x="235" y="440" width="130" height="30" as="geometry"/>
                </mxCell>
                <mxCell id="FSgiWotWoUx7oEefbV2D-66" value="" style="html=1;rounded=0;dashed=1;" parent="1" edge="1">
                    <mxGeometry relative="1" as="geometry">
                        <mxPoint x="304" y="562" as="sourcePoint"/>
                        <mxPoint x="340" y="480" as="targetPoint"/>
                    </mxGeometry>
                </mxCell>
                <mxCell id="FSgiWotWoUx7oEefbV2D-67" value="15.1:檢視行程輸入框()" style="text;html=1;align=center;verticalAlign=middle;resizable=0;points=[];autosize=1;strokeColor=none;fillColor=none;" parent="1" vertex="1">
                    <mxGeometry x="255" y="570" width="140" height="30" as="geometry"/>
                </mxCell>
                <mxCell id="FSgiWotWoUx7oEefbV2D-68" value="16:輸入行程()" style="text;html=1;align=center;verticalAlign=middle;resizable=0;points=[];autosize=1;strokeColor=none;fillColor=none;" parent="1" vertex="1">
                    <mxGeometry x="-30" y="450" width="100" height="30" as="geometry"/>
                </mxCell>
                <mxCell id="TEh5bMPlxuKXRqy_ldTu-14" style="rounded=0;orthogonalLoop=1;jettySize=auto;html=1;entryX=1;entryY=0.25;entryDx=0;entryDy=0;endArrow=none;endFill=0;" parent="1" source="TEh5bMPlxuKXRqy_ldTu-9" target="FSgiWotWoUx7oEefbV2D-6" edge="1">
                    <mxGeometry relative="1" as="geometry"/>
                </mxCell>
                <mxCell id="TEh5bMPlxuKXRqy_ldTu-29" style="rounded=0;orthogonalLoop=1;jettySize=auto;html=1;endArrow=none;endFill=0;" parent="1" source="TEh5bMPlxuKXRqy_ldTu-9" target="TEh5bMPlxuKXRqy_ldTu-11" edge="1">
                    <mxGeometry relative="1" as="geometry"/>
                </mxCell>
                <mxCell id="TEh5bMPlxuKXRqy_ldTu-9" value="顯示月曆" style="ellipse;shape=umlControl;whiteSpace=wrap;html=1;" parent="1" vertex="1">
                    <mxGeometry x="790" y="270" width="70" height="80" as="geometry"/>
                </mxCell>
                <mxCell id="82gKmiH_CqAm7BqFR_7U-2" style="edgeStyle=orthogonalEdgeStyle;rounded=0;orthogonalLoop=1;jettySize=auto;html=1;endArrow=none;endFill=0;" parent="1" source="TEh5bMPlxuKXRqy_ldTu-10" target="TEh5bMPlxuKXRqy_ldTu-13" edge="1">
                    <mxGeometry relative="1" as="geometry"/>
                </mxCell>
                <mxCell id="82gKmiH_CqAm7BqFR_7U-3" value="18.新增行程()" style="edgeLabel;html=1;align=center;verticalAlign=middle;resizable=0;points=[];" parent="82gKmiH_CqAm7BqFR_7U-2" vertex="1" connectable="0">
                    <mxGeometry x="-0.1479" relative="1" as="geometry">
                        <mxPoint x="1" y="-70" as="offset"/>
                    </mxGeometry>
                </mxCell>
                <mxCell id="TEh5bMPlxuKXRqy_ldTu-10" value="建立" style="ellipse;shape=umlControl;whiteSpace=wrap;html=1;" parent="1" vertex="1">
                    <mxGeometry x="187.5" y="940" width="65" height="80" as="geometry"/>
                </mxCell>
                <mxCell id="TEh5bMPlxuKXRqy_ldTu-11" value="行程資料" style="ellipse;shape=umlEntity;whiteSpace=wrap;html=1;" parent="1" vertex="1">
                    <mxGeometry x="1226" y="190" width="80" height="80" as="geometry"/>
                </mxCell>
                <mxCell id="TEh5bMPlxuKXRqy_ldTu-28" style="rounded=0;orthogonalLoop=1;jettySize=auto;html=1;endArrow=none;endFill=0;" parent="1" source="TEh5bMPlxuKXRqy_ldTu-12" target="TEh5bMPlxuKXRqy_ldTu-11" edge="1">
                    <mxGeometry relative="1" as="geometry"/>
                </mxCell>
                <mxCell id="TEh5bMPlxuKXRqy_ldTu-12" value="顯示日程" style="ellipse;shape=umlControl;whiteSpace=wrap;html=1;" parent="1" vertex="1">
                    <mxGeometry x="790" y="10" width="70" height="80" as="geometry"/>
                </mxCell>
                <mxCell id="82gKmiH_CqAm7BqFR_7U-4" style="rounded=0;orthogonalLoop=1;jettySize=auto;html=1;entryX=0.5;entryY=1;entryDx=0;entryDy=0;endArrow=none;endFill=0;" parent="1" source="TEh5bMPlxuKXRqy_ldTu-13" target="TEh5bMPlxuKXRqy_ldTu-11" edge="1">
                    <mxGeometry relative="1" as="geometry"/>
                </mxCell>
                <mxCell id="82gKmiH_CqAm7BqFR_7U-5" value="19.查詢比對資料()" style="edgeLabel;html=1;align=center;verticalAlign=middle;resizable=0;points=[];" parent="82gKmiH_CqAm7BqFR_7U-4" vertex="1" connectable="0">
                    <mxGeometry x="-0.0849" y="2" relative="1" as="geometry">
                        <mxPoint x="-93" y="-53" as="offset"/>
                    </mxGeometry>
                </mxCell>
                <mxCell id="TEh5bMPlxuKXRqy_ldTu-13" value="比對" style="ellipse;shape=umlControl;whiteSpace=wrap;html=1;" parent="1" vertex="1">
                    <mxGeometry x="1230" y="940" width="70" height="80" as="geometry"/>
                </mxCell>
                <mxCell id="TEh5bMPlxuKXRqy_ldTu-17" value="" style="html=1;rounded=0;" parent="1" edge="1">
                    <mxGeometry relative="1" as="geometry">
                        <mxPoint x="600" y="280" as="sourcePoint"/>
                        <mxPoint x="720" y="280" as="targetPoint"/>
                    </mxGeometry>
                </mxCell>
                <mxCell id="TEh5bMPlxuKXRqy_ldTu-18" value="" style="html=1;rounded=0;dashed=1;" parent="1" edge="1">
                    <mxGeometry relative="1" as="geometry">
                        <mxPoint x="720" y="340" as="sourcePoint"/>
                        <mxPoint x="595" y="340" as="targetPoint"/>
                    </mxGeometry>
                </mxCell>
                <mxCell id="TEh5bMPlxuKXRqy_ldTu-20" value="&lt;span style=&quot;background-color: rgb(251, 251, 251);&quot;&gt;3:顯示已有行程的日期()&lt;/span&gt;" style="edgeLabel;html=1;align=center;verticalAlign=middle;resizable=0;points=[];" parent="1" vertex="1" connectable="0">
                    <mxGeometry x="650" y="250" as="geometry"/>
                </mxCell>
                <mxCell id="TEh5bMPlxuKXRqy_ldTu-21" value="&lt;span style=&quot;background-color: rgb(251, 251, 251);&quot;&gt;6:用紅色標記已有行程的日期()&lt;/span&gt;" style="edgeLabel;html=1;align=center;verticalAlign=middle;resizable=0;points=[];" parent="1" vertex="1" connectable="0">
                    <mxGeometry x="660" y="360" as="geometry">
                        <mxPoint x="7" y="11" as="offset"/>
                    </mxGeometry>
                </mxCell>
                <mxCell id="TEh5bMPlxuKXRqy_ldTu-23" value="" style="html=1;rounded=0;" parent="1" edge="1">
                    <mxGeometry relative="1" as="geometry">
                        <mxPoint x="570" y="40" as="sourcePoint"/>
                        <mxPoint x="670" y="40" as="targetPoint"/>
                    </mxGeometry>
                </mxCell>
                <mxCell id="TEh5bMPlxuKXRqy_ldTu-25" value="&lt;span style=&quot;font-size: 11px;&quot;&gt;9:顯示日程()&lt;/span&gt;&lt;span style=&quot;color: rgba(0, 0, 0, 0); font-family: monospace; font-size: 0px; text-align: start;&quot;&gt;%3Cm&lt;/span&gt;" style="text;html=1;align=center;verticalAlign=middle;resizable=0;points=[];autosize=1;strokeColor=none;fillColor=none;" parent="1" vertex="1">
                    <mxGeometry x="580" y="-10" width="80" height="30" as="geometry"/>
                </mxCell>
                <mxCell id="TEh5bMPlxuKXRqy_ldTu-26" value="" style="html=1;rounded=0;dashed=1;" parent="1" edge="1">
                    <mxGeometry relative="1" as="geometry">
                        <mxPoint x="670" y="80" as="sourcePoint"/>
                        <mxPoint x="570" y="80" as="targetPoint"/>
                    </mxGeometry>
                </mxCell>
                <mxCell id="TEh5bMPlxuKXRqy_ldTu-31" value="" style="html=1;rounded=0;" parent="1" edge="1">
                    <mxGeometry relative="1" as="geometry">
                        <mxPoint x="960" y="80" as="sourcePoint"/>
                        <mxPoint x="1050" y="120" as="targetPoint"/>
                    </mxGeometry>
                </mxCell>
                <mxCell id="TEh5bMPlxuKXRqy_ldTu-32" value="" style="html=1;rounded=0;dashed=1;" parent="1" edge="1">
                    <mxGeometry relative="1" as="geometry">
                        <mxPoint x="1040" y="168" as="sourcePoint"/>
                        <mxPoint x="940" y="128" as="targetPoint"/>
                    </mxGeometry>
                </mxCell>
                <mxCell id="TEh5bMPlxuKXRqy_ldTu-33" value="&lt;span style=&quot;color: rgb(0, 0, 0); font-family: Helvetica; font-size: 11px; font-style: normal; font-variant-ligatures: normal; font-variant-caps: normal; font-weight: 400; letter-spacing: normal; orphans: 2; text-align: center; text-indent: 0px; text-transform: none; widows: 2; word-spacing: 0px; -webkit-text-stroke-width: 0px; white-space: nowrap; background-color: rgb(255, 255, 255); text-decoration-thickness: initial; text-decoration-style: initial; text-decoration-color: initial; display: inline !important; float: none;&quot;&gt;4:讀取當月行程()&lt;/span&gt;" style="text;whiteSpace=wrap;html=1;" parent="1" vertex="1">
                    <mxGeometry x="920" y="210" width="120" height="40" as="geometry"/>
                </mxCell>
                <mxCell id="TEh5bMPlxuKXRqy_ldTu-34" value="" style="html=1;rounded=0;" parent="1" edge="1">
                    <mxGeometry relative="1" as="geometry">
                        <mxPoint x="930" y="260" as="sourcePoint"/>
                        <mxPoint x="1030" y="240" as="targetPoint"/>
                    </mxGeometry>
                </mxCell>
                <mxCell id="TEh5bMPlxuKXRqy_ldTu-35" value="" style="html=1;rounded=0;dashed=1;" parent="1" edge="1">
                    <mxGeometry relative="1" as="geometry">
                        <mxPoint x="1030" y="300" as="sourcePoint"/>
                        <mxPoint x="930" y="320" as="targetPoint"/>
                    </mxGeometry>
                </mxCell>
                <mxCell id="TEh5bMPlxuKXRqy_ldTu-36" value="&lt;span style=&quot;color: rgb(0, 0, 0); font-family: Helvetica; font-size: 11px; font-style: normal; font-variant-ligatures: normal; font-variant-caps: normal; font-weight: 400; letter-spacing: normal; orphans: 2; text-align: center; text-indent: 0px; text-transform: none; widows: 2; word-spacing: 0px; -webkit-text-stroke-width: 0px; white-space: nowrap; background-color: rgb(255, 255, 255); text-decoration-thickness: initial; text-decoration-style: initial; text-decoration-color: initial; display: inline !important; float: none;&quot;&gt;10:讀取當日行程()&lt;/span&gt;" style="text;whiteSpace=wrap;html=1;" parent="1" vertex="1">
                    <mxGeometry x="980" y="40" width="120" height="40" as="geometry"/>
                </mxCell>
                <mxCell id="TEh5bMPlxuKXRqy_ldTu-37" value="&lt;span style=&quot;color: rgb(0, 0, 0); font-family: Helvetica; font-size: 11px; font-style: normal; font-variant-ligatures: normal; font-variant-caps: normal; font-weight: 400; letter-spacing: normal; orphans: 2; text-align: center; text-indent: 0px; text-transform: none; widows: 2; word-spacing: 0px; -webkit-text-stroke-width: 0px; white-space: nowrap; background-color: rgb(255, 255, 255); text-decoration-thickness: initial; text-decoration-style: initial; text-decoration-color: initial; display: inline !important; float: none;&quot;&gt;5:()&lt;/span&gt;" style="text;whiteSpace=wrap;html=1;" parent="1" vertex="1">
                    <mxGeometry x="940" y="340" width="120" height="40" as="geometry"/>
                </mxCell>
                <mxCell id="TEh5bMPlxuKXRqy_ldTu-38" value="&lt;span style=&quot;color: rgb(0, 0, 0); font-family: Helvetica; font-size: 11px; font-style: normal; font-variant-ligatures: normal; font-variant-caps: normal; font-weight: 400; letter-spacing: normal; orphans: 2; text-align: center; text-indent: 0px; text-transform: none; widows: 2; word-spacing: 0px; -webkit-text-stroke-width: 0px; white-space: nowrap; background-color: rgb(255, 255, 255); text-decoration-thickness: initial; text-decoration-style: initial; text-decoration-color: initial; display: inline !important; float: none;&quot;&gt;11:()&lt;/span&gt;" style="text;whiteSpace=wrap;html=1;" parent="1" vertex="1">
                    <mxGeometry x="920" y="127" width="120" height="40" as="geometry"/>
                </mxCell>
                <mxCell id="TEh5bMPlxuKXRqy_ldTu-39" value="2.1:讀取選取月曆()" style="edgeLabel;html=1;align=center;verticalAlign=middle;resizable=0;points=[];" parent="1" vertex="1" connectable="0">
                    <mxGeometry x="550.0010249601777" y="430.00072080806024" as="geometry"/>
                </mxCell>
                <mxCell id="TEh5bMPlxuKXRqy_ldTu-40" value="" style="html=1;rounded=0;dashed=1;" parent="1" edge="1">
                    <mxGeometry relative="1" as="geometry">
                        <mxPoint x="490" y="460" as="sourcePoint"/>
                        <mxPoint x="444" y="388" as="targetPoint"/>
                    </mxGeometry>
                </mxCell>
                <mxCell id="TEh5bMPlxuKXRqy_ldTu-41" value="&lt;span style=&quot;font-size: 11px;&quot;&gt;12:檢視日程()&lt;/span&gt;&lt;span style=&quot;color: rgba(0, 0, 0, 0); font-family: monospace; font-size: 0px; text-align: start;&quot;&gt;%3Cm&lt;/span&gt;" style="text;html=1;align=center;verticalAlign=middle;resizable=0;points=[];autosize=1;strokeColor=none;fillColor=none;" parent="1" vertex="1">
                    <mxGeometry x="580" y="90" width="90" height="30" as="geometry"/>
                </mxCell>
                <mxCell id="TEh5bMPlxuKXRqy_ldTu-43" value="" style="html=1;rounded=0;startArrow=classic;startFill=1;endArrow=none;endFill=0;" parent="1" edge="1">
                    <mxGeometry relative="1" as="geometry">
                        <mxPoint x="188" y="880" as="sourcePoint"/>
                        <mxPoint x="187.5" y="800" as="targetPoint"/>
                    </mxGeometry>
                </mxCell>
                <mxCell id="TEh5bMPlxuKXRqy_ldTu-46" value="" style="html=1;rounded=0;" parent="1" edge="1">
                    <mxGeometry relative="1" as="geometry">
                        <mxPoint x="70" y="470" as="sourcePoint"/>
                        <mxPoint x="110" y="550" as="targetPoint"/>
                    </mxGeometry>
                </mxCell>
                <mxCell id="TEh5bMPlxuKXRqy_ldTu-49" value="17:建立行程()" style="text;html=1;align=center;verticalAlign=middle;resizable=0;points=[];autosize=1;strokeColor=none;fillColor=none;" parent="1" vertex="1">
                    <mxGeometry x="87.5" y="790" width="100" height="30" as="geometry"/>
                </mxCell>
                <mxCell id="TEh5bMPlxuKXRqy_ldTu-51" value="" style="html=1;rounded=0;" parent="1" edge="1">
                    <mxGeometry relative="1" as="geometry">
                        <mxPoint x="640" y="625" as="sourcePoint"/>
                        <mxPoint x="760" y="545" as="targetPoint"/>
                    </mxGeometry>
                </mxCell>
                <mxCell id="TEh5bMPlxuKXRqy_ldTu-52" value="18:新增行程()" style="text;html=1;align=center;verticalAlign=middle;resizable=0;points=[];autosize=1;strokeColor=none;fillColor=none;" parent="1" vertex="1">
                    <mxGeometry x="630" y="555" width="100" height="30" as="geometry"/>
                </mxCell>
                <mxCell id="82gKmiH_CqAm7BqFR_7U-7" value="" style="html=1;rounded=0;startArrow=classic;startFill=1;endArrow=none;endFill=0;" parent="1" edge="1">
                    <mxGeometry relative="1" as="geometry">
                        <mxPoint x="720" y="960" as="sourcePoint"/>
                        <mxPoint x="630" y="960" as="targetPoint"/>
                    </mxGeometry>
                </mxCell>
                <mxCell id="82gKmiH_CqAm7BqFR_7U-8" value="" style="html=1;rounded=0;startArrow=classic;startFill=1;endArrow=none;endFill=0;" parent="1" edge="1">
                    <mxGeometry relative="1" as="geometry">
                        <mxPoint x="1226.5" y="555" as="sourcePoint"/>
                        <mxPoint x="1226" y="635" as="targetPoint"/>
                    </mxGeometry>
                </mxCell>
                <mxCell id="tvYQikUjvdEjXpRlb5Ct-2" value="" style="html=1;rounded=0;dashed=1;" parent="1" edge="1">
                    <mxGeometry relative="1" as="geometry">
                        <mxPoint x="1306" y="555" as="sourcePoint"/>
                        <mxPoint x="1306" y="635" as="targetPoint"/>
                    </mxGeometry>
                </mxCell>
                <mxCell id="tvYQikUjvdEjXpRlb5Ct-5" value="" style="html=1;rounded=0;dashed=1;" parent="1" edge="1">
                    <mxGeometry relative="1" as="geometry">
                        <mxPoint x="1010" y="660" as="sourcePoint"/>
                        <mxPoint x="950" y="580" as="targetPoint"/>
                    </mxGeometry>
                </mxCell>
                <mxCell id="tvYQikUjvdEjXpRlb5Ct-7" value="21:[IF] 行程衝突 警示日程已有行程()" style="text;html=1;align=center;verticalAlign=middle;resizable=0;points=[];autosize=1;strokeColor=none;fillColor=none;" parent="1" vertex="1">
                    <mxGeometry x="465" y="820" width="220" height="30" as="geometry"/>
                </mxCell>
                <mxCell id="tvYQikUjvdEjXpRlb5Ct-9" value="" style="html=1;rounded=0;dashed=1;" parent="1" edge="1">
                    <mxGeometry relative="1" as="geometry">
                        <mxPoint x="770" y="870" as="sourcePoint"/>
                        <mxPoint x="680" y="840" as="targetPoint"/>
                    </mxGeometry>
                </mxCell>
                <mxCell id="tvYQikUjvdEjXpRlb5Ct-10" style="rounded=0;orthogonalLoop=1;jettySize=auto;html=1;entryX=0.124;entryY=0.328;entryDx=0;entryDy=0;entryPerimeter=0;endArrow=none;endFill=0;" parent="1" source="TEh5bMPlxuKXRqy_ldTu-9" target="TEh5bMPlxuKXRqy_ldTu-13" edge="1">
                    <mxGeometry relative="1" as="geometry"/>
                </mxCell>
                <mxCell id="tvYQikUjvdEjXpRlb5Ct-11" value="&lt;span style=&quot;color: rgb(0, 0, 0); font-family: Helvetica; font-size: 12px; font-style: normal; font-variant-ligatures: normal; font-variant-caps: normal; font-weight: 400; letter-spacing: normal; orphans: 2; text-align: center; text-indent: 0px; text-transform: none; widows: 2; word-spacing: 0px; -webkit-text-stroke-width: 0px; white-space: nowrap; background-color: rgb(251, 251, 251); text-decoration-thickness: initial; text-decoration-style: initial; text-decoration-color: initial; display: inline !important; float: none;&quot;&gt;24:[ELSE]&amp;nbsp; 顯示行程()&lt;/span&gt;" style="text;whiteSpace=wrap;html=1;" parent="1" vertex="1">
                    <mxGeometry x="860" y="540" width="190" height="40" as="geometry"/>
                </mxCell>
                <mxCell id="tvYQikUjvdEjXpRlb5Ct-14" value="22.調整日程()" style="text;html=1;align=center;verticalAlign=middle;resizable=0;points=[];autosize=1;strokeColor=none;fillColor=none;" parent="1" vertex="1">
                    <mxGeometry x="-200" y="420" width="100" height="30" as="geometry"/>
                </mxCell>
                <mxCell id="tvYQikUjvdEjXpRlb5Ct-17" value="Ref" style="shape=umlFrame;whiteSpace=wrap;html=1;pointerEvents=0;recursiveResize=0;container=1;collapsible=0;width=50;" parent="1" vertex="1">
                    <mxGeometry x="-290" y="650" width="210" height="60" as="geometry"/>
                </mxCell>
                <mxCell id="tvYQikUjvdEjXpRlb5Ct-18" value="&lt;div&gt;&lt;span style=&quot;background-color: initial;&quot;&gt;&lt;font style=&quot;vertical-align: inherit;&quot;&gt;&lt;font style=&quot;vertical-align: inherit;&quot;&gt;維護日程&lt;/font&gt;&lt;/font&gt;&lt;/span&gt;&lt;/div&gt;" style="text;align=center;html=1;" parent="tvYQikUjvdEjXpRlb5Ct-17" vertex="1">
                    <mxGeometry width="100" height="20" relative="1" as="geometry">
                        <mxPoint x="69" y="20" as="offset"/>
                    </mxGeometry>
                </mxCell>
                <mxCell id="tvYQikUjvdEjXpRlb5Ct-23" style="rounded=0;orthogonalLoop=1;jettySize=auto;html=1;entryX=0.995;entryY=0.418;entryDx=0;entryDy=0;entryPerimeter=0;endArrow=none;endFill=0;" parent="1" source="FSgiWotWoUx7oEefbV2D-6" target="tvYQikUjvdEjXpRlb5Ct-17" edge="1">
                    <mxGeometry relative="1" as="geometry"/>
                </mxCell>
                <mxCell id="tvYQikUjvdEjXpRlb5Ct-24" value="" style="html=1;rounded=0;" parent="1" edge="1">
                    <mxGeometry relative="1" as="geometry">
                        <mxPoint x="-40" y="410" as="sourcePoint"/>
                        <mxPoint x="-100" y="500" as="targetPoint"/>
                    </mxGeometry>
                </mxCell>
                <mxCell id="tvYQikUjvdEjXpRlb5Ct-25" value="" style="html=1;rounded=0;dashed=1;" parent="1" edge="1">
                    <mxGeometry relative="1" as="geometry">
                        <mxPoint x="-10" y="650" as="sourcePoint"/>
                        <mxPoint x="64" y="600" as="targetPoint"/>
                    </mxGeometry>
                </mxCell>
                <mxCell id="tvYQikUjvdEjXpRlb5Ct-26" value="23.回到月曆()" style="text;html=1;align=center;verticalAlign=middle;resizable=0;points=[];autosize=1;strokeColor=none;fillColor=none;" parent="1" vertex="1">
                    <mxGeometry x="10" y="630" width="100" height="30" as="geometry"/>
                </mxCell>
                <mxCell id="tvYQikUjvdEjXpRlb5Ct-27" value="&lt;span style=&quot;color: rgb(0, 0, 0); font-family: Helvetica; font-size: 12px; font-style: normal; font-variant-ligatures: normal; font-variant-caps: normal; font-weight: 400; letter-spacing: normal; orphans: 2; text-align: center; text-indent: 0px; text-transform: none; widows: 2; word-spacing: 0px; -webkit-text-stroke-width: 0px; white-space: nowrap; background-color: rgb(251, 251, 251); text-decoration-thickness: initial; text-decoration-style: initial; text-decoration-color: initial; display: inline !important; float: none;&quot;&gt;25:顯示新增行程()&lt;/span&gt;" style="text;whiteSpace=wrap;html=1;" parent="1" vertex="1">
                    <mxGeometry x="590" y="380" width="190" height="40" as="geometry"/>
                </mxCell>
                <mxCell id="tvYQikUjvdEjXpRlb5Ct-28" value="26:返回當月月曆()" style="text;html=1;align=center;verticalAlign=middle;resizable=0;points=[];autosize=1;strokeColor=none;fillColor=none;" parent="1" vertex="1">
                    <mxGeometry x="20" y="190" width="120" height="30" as="geometry"/>
                </mxCell>
                <mxCell id="tvYQikUjvdEjXpRlb5Ct-29" value="27:點選要查看日期()" style="text;html=1;align=center;verticalAlign=middle;resizable=0;points=[];autosize=1;strokeColor=none;fillColor=none;" parent="1" vertex="1">
                    <mxGeometry x="20" y="210" width="130" height="30" as="geometry"/>
                </mxCell>
                <mxCell id="tvYQikUjvdEjXpRlb5Ct-30" value="28:查看日程()" style="edgeLabel;html=1;align=center;verticalAlign=middle;resizable=0;points=[];" parent="1" vertex="1" connectable="0">
                    <mxGeometry x="340" y="156.76" as="geometry"/>
                </mxCell>
                <mxCell id="tvYQikUjvdEjXpRlb5Ct-31" value="29:點選建立行程()" style="text;html=1;align=center;verticalAlign=middle;resizable=0;points=[];autosize=1;strokeColor=none;fillColor=none;" parent="1" vertex="1">
                    <mxGeometry x="20" y="235" width="120" height="30" as="geometry"/>
                </mxCell>
                <mxCell id="tvYQikUjvdEjXpRlb5Ct-33" value="&lt;span style=&quot;color: rgb(0, 0, 0); font-family: Helvetica; font-size: 11px; font-style: normal; font-variant-ligatures: normal; font-variant-caps: normal; font-weight: 400; letter-spacing: normal; orphans: 2; text-align: center; text-indent: 0px; text-transform: none; widows: 2; word-spacing: 0px; -webkit-text-stroke-width: 0px; white-space: nowrap; background-color: rgb(251, 251, 251); text-decoration-thickness: initial; text-decoration-style: initial; text-decoration-color: initial; display: inline !important; float: none;&quot;&gt;30:顯示新增行程輸入框()&lt;/span&gt;" style="text;whiteSpace=wrap;html=1;" parent="1" vertex="1">
                    <mxGeometry x="120" width="160" height="40" as="geometry"/>
                </mxCell>
                <mxCell id="tvYQikUjvdEjXpRlb5Ct-34" value="" style="html=1;rounded=0;startArrow=classic;startFill=1;endArrow=none;endFill=0;" parent="1" edge="1">
                    <mxGeometry relative="1" as="geometry">
                        <mxPoint x="186.32" y="148" as="sourcePoint"/>
                        <mxPoint x="186.32" y="58" as="targetPoint"/>
                    </mxGeometry>
                </mxCell>
                <mxCell id="tvYQikUjvdEjXpRlb5Ct-35" value="" style="html=1;rounded=0;dashed=1;startArrow=classic;startFill=1;endArrow=none;endFill=0;" parent="1" edge="1">
                    <mxGeometry relative="1" as="geometry">
                        <mxPoint x="252.5" y="70" as="sourcePoint"/>
                        <mxPoint x="252.5" y="160" as="targetPoint"/>
                    </mxGeometry>
                </mxCell>
                <mxCell id="tvYQikUjvdEjXpRlb5Ct-37" value="&lt;span style=&quot;color: rgb(0, 0, 0); font-family: Helvetica; font-size: 11px; font-style: normal; font-variant-ligatures: normal; font-variant-caps: normal; font-weight: 400; letter-spacing: normal; orphans: 2; text-align: center; text-indent: 0px; text-transform: none; widows: 2; word-spacing: 0px; -webkit-text-stroke-width: 0px; white-space: nowrap; background-color: rgb(251, 251, 251); text-decoration-thickness: initial; text-decoration-style: initial; text-decoration-color: initial; display: inline !important; float: none;&quot;&gt;31:檢視新增行程輸入框()&lt;/span&gt;" style="text;whiteSpace=wrap;html=1;" parent="1" vertex="1">
                    <mxGeometry x="220" y="167" width="160" height="40" as="geometry"/>
                </mxCell>
                <mxCell id="tvYQikUjvdEjXpRlb5Ct-38" value="32:輸入行程()" style="text;html=1;align=center;verticalAlign=middle;resizable=0;points=[];autosize=1;strokeColor=none;fillColor=none;" parent="1" vertex="1">
                    <mxGeometry x="-30" y="470" width="100" height="30" as="geometry"/>
                </mxCell>
                <mxCell id="tvYQikUjvdEjXpRlb5Ct-39" value="33:建立行程()" style="text;html=1;align=center;verticalAlign=middle;resizable=0;points=[];autosize=1;strokeColor=none;fillColor=none;" parent="1" vertex="1">
                    <mxGeometry x="87.5" y="810" width="100" height="30" as="geometry"/>
                </mxCell>
                <mxCell id="tvYQikUjvdEjXpRlb5Ct-41" value="34.新增行程()" style="edgeLabel;html=1;align=center;verticalAlign=middle;resizable=0;points=[];" parent="1" vertex="1" connectable="0">
                    <mxGeometry x="670.0005882352941" y="940" as="geometry">
                        <mxPoint x="2" y="-2" as="offset"/>
                    </mxGeometry>
                </mxCell>
                <mxCell id="tvYQikUjvdEjXpRlb5Ct-42" value="35.查詢比對資料()" style="edgeLabel;html=1;align=center;verticalAlign=middle;resizable=0;points=[];" parent="1" vertex="1" connectable="0">
                    <mxGeometry x="1189.9982984687344" y="569.9985334112157" as="geometry">
                        <mxPoint x="-17" y="29" as="offset"/>
                    </mxGeometry>
                </mxCell>
                <mxCell id="tvYQikUjvdEjXpRlb5Ct-44" value="36:()" style="text;html=1;align=center;verticalAlign=middle;resizable=0;points=[];autosize=1;strokeColor=none;fillColor=none;" parent="1" vertex="1">
                    <mxGeometry x="1330" y="585" width="50" height="30" as="geometry"/>
                </mxCell>
                <mxCell id="tvYQikUjvdEjXpRlb5Ct-45" value="20:()" style="text;html=1;align=center;verticalAlign=middle;resizable=0;points=[];autosize=1;strokeColor=none;fillColor=none;" parent="1" vertex="1">
                    <mxGeometry x="1330" y="570" width="50" height="30" as="geometry"/>
                </mxCell>
                <mxCell id="tvYQikUjvdEjXpRlb5Ct-49" style="rounded=0;orthogonalLoop=1;jettySize=auto;html=1;entryX=0.282;entryY=0.183;entryDx=0;entryDy=0;entryPerimeter=0;endArrow=none;endFill=0;" parent="1" source="FSgiWotWoUx7oEefbV2D-7" target="TEh5bMPlxuKXRqy_ldTu-13" edge="1">
                    <mxGeometry relative="1" as="geometry"/>
                </mxCell>
                <mxCell id="tvYQikUjvdEjXpRlb5Ct-50" value="" style="html=1;rounded=0;dashed=1;" parent="1" edge="1">
                    <mxGeometry relative="1" as="geometry">
                        <mxPoint x="1040" y="770" as="sourcePoint"/>
                        <mxPoint x="960" y="710" as="targetPoint"/>
                    </mxGeometry>
                </mxCell>
                <mxCell id="tvYQikUjvdEjXpRlb5Ct-51" value="37:[IF] 行程衝突 警示日程已有行程()" style="text;html=1;align=center;verticalAlign=middle;resizable=0;points=[];autosize=1;strokeColor=none;fillColor=none;" parent="1" vertex="1">
                    <mxGeometry x="750" y="690" width="220" height="30" as="geometry"/>
                </mxCell>
                <mxCell id="tvYQikUjvdEjXpRlb5Ct-52" value="38.調整日程()" style="text;html=1;align=center;verticalAlign=middle;resizable=0;points=[];autosize=1;strokeColor=none;fillColor=none;" parent="1" vertex="1">
                    <mxGeometry x="-200" y="440" width="100" height="30" as="geometry"/>
                </mxCell>
                <mxCell id="tvYQikUjvdEjXpRlb5Ct-53" style="edgeStyle=orthogonalEdgeStyle;rounded=0;orthogonalLoop=1;jettySize=auto;html=1;entryX=0.217;entryY=-0.014;entryDx=0;entryDy=0;entryPerimeter=0;endArrow=none;endFill=0;" parent="1" source="FSgiWotWoUx7oEefbV2D-7" target="tvYQikUjvdEjXpRlb5Ct-17" edge="1">
                    <mxGeometry relative="1" as="geometry"/>
                </mxCell>
                <mxCell id="tvYQikUjvdEjXpRlb5Ct-54" value="39.回到日曆()" style="text;html=1;align=center;verticalAlign=middle;resizable=0;points=[];autosize=1;strokeColor=none;fillColor=none;" parent="1" vertex="1">
                    <mxGeometry x="-400" y="295" width="100" height="30" as="geometry"/>
                </mxCell>
                <mxCell id="tvYQikUjvdEjXpRlb5Ct-55" value="" style="html=1;rounded=0;dashed=1;startArrow=classic;startFill=1;endArrow=none;endFill=0;" parent="1" edge="1">
                    <mxGeometry relative="1" as="geometry">
                        <mxPoint x="-290" y="280" as="sourcePoint"/>
                        <mxPoint x="-290" y="370" as="targetPoint"/>
                    </mxGeometry>
                </mxCell>
                <mxCell id="tvYQikUjvdEjXpRlb5Ct-59" style="rounded=0;orthogonalLoop=1;jettySize=auto;html=1;entryX=0.143;entryY=0.375;entryDx=0;entryDy=0;entryPerimeter=0;" parent="1" source="TEh5bMPlxuKXRqy_ldTu-12" target="TEh5bMPlxuKXRqy_ldTu-13" edge="1">
                    <mxGeometry relative="1" as="geometry"/>
                </mxCell>
                <mxCell id="tvYQikUjvdEjXpRlb5Ct-60" value="&lt;span style=&quot;color: rgb(0, 0, 0); font-family: Helvetica; font-size: 12px; font-style: normal; font-variant-ligatures: normal; font-variant-caps: normal; font-weight: 400; letter-spacing: normal; orphans: 2; text-align: center; text-indent: 0px; text-transform: none; widows: 2; word-spacing: 0px; -webkit-text-stroke-width: 0px; white-space: nowrap; background-color: rgb(251, 251, 251); text-decoration-thickness: initial; text-decoration-style: initial; text-decoration-color: initial; display: inline !important; float: none;&quot;&gt;40:[ELSE]&amp;nbsp; 顯示行程()&lt;/span&gt;" style="text;whiteSpace=wrap;html=1;" parent="1" vertex="1">
                    <mxGeometry x="980" y="480" width="190" height="40" as="geometry"/>
                </mxCell>
                <mxCell id="tvYQikUjvdEjXpRlb5Ct-61" value="" style="html=1;rounded=0;dashed=1;" parent="1" edge="1">
                    <mxGeometry relative="1" as="geometry">
                        <mxPoint x="1070" y="600" as="sourcePoint"/>
                        <mxPoint x="1010" y="520" as="targetPoint"/>
                    </mxGeometry>
                </mxCell>
                <mxCell id="tvYQikUjvdEjXpRlb5Ct-62" value="&lt;span style=&quot;color: rgb(0, 0, 0); font-family: Helvetica; font-size: 12px; font-style: normal; font-variant-ligatures: normal; font-variant-caps: normal; font-weight: 400; letter-spacing: normal; orphans: 2; text-align: center; text-indent: 0px; text-transform: none; widows: 2; word-spacing: 0px; -webkit-text-stroke-width: 0px; white-space: nowrap; background-color: rgb(251, 251, 251); text-decoration-thickness: initial; text-decoration-style: initial; text-decoration-color: initial; display: inline !important; float: none;&quot;&gt;41:顯示新增行程()&lt;/span&gt;" style="text;whiteSpace=wrap;html=1;" parent="1" vertex="1">
                    <mxGeometry x="590" y="117" width="190" height="40" as="geometry"/>
                </mxCell>
                <mxCell id="2" value="1&lt;br&gt;" style="text;html=1;align=center;verticalAlign=middle;resizable=0;points=[];autosize=1;strokeColor=none;fillColor=none;" vertex="1" parent="1">
                    <mxGeometry x="1575" y="1095" width="30" height="30" as="geometry"/>
                </mxCell>
            </root>
        </mxGraphModel>
    </diagram>
</mxfile>